<svg width="56" height="50" viewBox="0 0 56 50" fill="none" xmlns="http://www.w3.org/2000/svg">
<path d="M27.9997 26.465L38.6072 37.07L35.0697 40.6075L30.4997 36.0375V50H25.4997V36.0325L20.9297 40.6075L17.3922 37.07L27.9997 26.465ZM27.9997 5.554e-08C32.2922 0.000204425 36.4349 1.57778 39.6402 4.4328C42.8455 7.28781 44.89 11.2212 45.3847 15.485C48.4954 16.3333 51.2091 18.2478 53.0514 20.8938C54.8937 23.5399 55.7476 26.7492 55.4638 29.961C55.18 33.1727 53.7765 36.1826 51.4986 38.4645C49.2208 40.7465 46.2135 42.1554 43.0022 42.445L42.9997 37.5C43.0037 33.5679 41.4635 29.7914 38.7106 26.9836C35.9578 24.1758 32.2125 22.5613 28.281 22.4876C24.3496 22.4138 20.5464 23.8868 17.6902 26.5894C14.834 29.2919 13.1532 33.008 13.0097 36.9375L12.9997 37.5V42.445C9.78836 42.1558 6.78075 40.7472 4.50257 38.4655C2.22439 36.1837 0.820553 33.1739 0.536421 29.9621C0.252288 26.7502 1.10593 23.5407 2.94816 20.8944C4.79038 18.2482 7.504 16.3335 10.6147 15.485C11.109 11.2209 13.1533 7.28728 16.3587 4.43216C19.5641 1.57705 23.7071 -0.000341757 27.9997 5.554e-08Z" fill="rgba(91, 91, 236, 0.87)"/>
</svg>
